<?xml version="1.0" encoding="UTF-8" standalone="no"?>
<!-- Created with Inkscape (http://www.inkscape.org/) -->

<svg
   width="1445.0181mm"
   height="1445.3397mm"
   viewBox="0 0 1445.0181 1445.3397"
   version="1.1"
   id="svg1"
   xml:space="preserve"
   inkscape:version="1.4.1 (93de688d07, 2025-03-30)"
   sodipodi:docname="logo.inkscape.svg"
   inkscape:export-filename="logo-512x512.png"
   inkscape:export-xdpi="96"
   inkscape:export-ydpi="96"
   xmlns:inkscape="http://www.inkscape.org/namespaces/inkscape"
   xmlns:sodipodi="http://sodipodi.sourceforge.net/DTD/sodipodi-0.dtd"
   xmlns="http://www.w3.org/2000/svg"
   xmlns:svg="http://www.w3.org/2000/svg"><sodipodi:namedview
     id="namedview1"
     pagecolor="#ffffff"
     bordercolor="#000000"
     borderopacity="0.25"
     inkscape:showpageshadow="2"
     inkscape:pageopacity="0.0"
     inkscape:pagecheckerboard="0"
     inkscape:deskcolor="#d1d1d1"
     inkscape:document-units="mm"
     inkscape:zoom="0.06970479"
     inkscape:cx="6240.6041"
     inkscape:cy="4476.0195"
     inkscape:window-width="1920"
     inkscape:window-height="1054"
     inkscape:window-x="0"
     inkscape:window-y="0"
     inkscape:window-maximized="0"
     inkscape:current-layer="layer1" /><defs
     id="defs1"><filter
       style="color-interpolation-filters:sRGB"
       inkscape:label="Colorize"
       id="filter2"
       x="0"
       y="0"
       width="1"
       height="1"><feComposite
         in2="SourceGraphic"
         operator="arithmetic"
         k1="0"
         k2="1"
         result="composite1"
         id="feComposite1"
         k3="0"
         k4="0" /><feColorMatrix
         in="composite1"
         values="1"
         type="saturate"
         result="colormatrix1"
         id="feColorMatrix1" /><feFlood
         flood-opacity="1"
         flood-color="rgb(0,0,0)"
         result="flood1"
         id="feFlood1" /><feBlend
         in="flood1"
         in2="colormatrix1"
         mode="multiply"
         result="blend1"
         id="feBlend1" /><feBlend
         in2="blend1"
         mode="screen"
         result="blend2"
         id="feBlend2" /><feColorMatrix
         in="blend2"
         values="1"
         type="saturate"
         result="colormatrix2"
         id="feColorMatrix2" /><feComposite
         in="colormatrix2"
         in2="SourceGraphic"
         operator="in"
         result="composite2"
         id="feComposite2" /></filter></defs><g
     inkscape:label="Layer 1"
     inkscape:groupmode="layer"
     id="layer1"
     transform="translate(617.29065,574.34423)"><g
       id="g2"><path
         style="fill:#ffffff;fill-opacity:1"
         d="m 84.005199,870.58291 c -6.59679,-0.15687 -18.013096,-0.64643 -20.902083,-0.89634 -1.600729,-0.13847 -4.934479,-0.37208 -7.408333,-0.51914 -2.473854,-0.14705 -6.10526,-0.44107 -8.069791,-0.65337 -1.964532,-0.21229 -5.953125,-0.62806 -8.863542,-0.92391 -12.199153,-1.24009 -15.952922,-1.61778 -17.330208,-1.74372 -12.2220017,-1.11752 -25.2045915,-2.94966 -44.053124,-6.21691 -5.982756,-1.03707 -19.349772,-3.67273 -24.209375,-4.77352 -10.360138,-2.34676 -16.528431,-3.78561 -22.092708,-5.15345 -2.595398,-0.63801 -12.58478,-3.25369 -15.213542,-3.9836 -1.81901,-0.50507 -4.20026,-1.16272 -5.291666,-1.46145 -1.091407,-0.29873 -2.69875,-0.75769 -3.571875,-1.01992 -0.873125,-0.26223 -2.718594,-0.80299 -4.101042,-1.2017 -16.30951,-4.70379 -40.24171,-12.68873 -53.57812,-17.87624 -14.78945,-5.75272 -23.08145,-9.08868 -28.575,-11.49605 -7.6436,-3.34955 -17.33474,-7.66965 -19.71146,-8.78694 -1.67349,-0.7867 -4.47146,-2.10225 -6.21771,-2.92344 -1.74625,-0.8212 -7.52078,-3.66097 -12.83229,-6.3106 -23.15533,-11.55097 -42.68001,-22.60681 -66.27813,-37.52996 -3.75227,-2.3729 -17.73631,-11.6398 -20.84099,-13.81085 -13.88469,-9.70937 -22.03441,-15.675 -32.60484,-23.86691 -53.85918,-41.73996 -102.03058,-91.44872 -141.82127,-146.3474 -3.48208,-4.80419 -6.67306,-9.31131 -10.49,-14.81667 -4.29922,-6.20097 -10.46869,-15.55389 -15.35718,-23.28149 -2.94817,-4.66038 -4.38526,-6.99466 -9.53163,-15.48231 -2.70195,-4.45621 -11.04,-19.01457 -13.63685,-23.81016 -1.0244,-1.89177 -2.4098,-4.45161 -3.07865,-5.68854 -9.0506,-16.73746 -21.75124,-43.29199 -28.59945,-59.79583 -0.69441,-1.67349 -1.59214,-3.81661 -1.99494,-4.7625 -1.49135,-3.50204 -7.41796,-18.57 -9.47013,-24.07708 -8.11432,-21.77509 -15.48148,-44.80508 -20.94808,-65.48438 -0.26928,-1.01864 -0.80382,-3.0427 -1.18787,-4.49791 -4.02466,-15.24998 -8.93929,-37.18136 -11.35419,-50.66771 -0.22149,-1.23693 -0.64444,-3.55865 -0.93989,-5.15938 -2.19901,-11.91399 -4.8873,-29.98402 -6.37668,-42.8625 -1.27499,-11.02455 -2.85424,-28.90441 -3.2951,-37.30624 -0.084,-1.60073 -0.32248,-5.23214 -0.52997,-8.0698 -1.13781,-15.56093 -1.21053,-58.65106 -0.12949,-76.72916 0.35333,-5.90867 1.01896,-15.292145 1.31379,-18.520835 0.13954,-1.527969 0.32363,-3.730625 0.4091,-4.894792 0.14786,-2.013955 0.58184,-6.402374 1.71382,-17.330208 0.27888,-2.692135 0.58341,-5.728229 0.67675,-6.746875 0.0934,-1.018646 0.46512,-3.935677 0.82617,-6.482291 0.36105,-2.546615 0.82423,-5.820834 1.02928,-7.276042 1.56,-11.070871 3.24226,-22.034093 4.34411,-28.310416 0.30657,-1.74625 0.72146,-4.1275 0.92197,-5.291667 0.39139,-2.2723 0.72708,-4.017248 2.16323,-11.2447913 1.16659,-5.8709612 2.29478,-11.0628511 4.4845,-20.6374997 0.67842,-2.966422 3.7751,-15.345726 4.83154,-19.314583 2.2679,-8.520128 5.16816,-18.709541 7.19206,-25.267708 3.05298,-9.892739 7.22128,-22.498246 10.06142,-30.427083 0.99039,-2.764896 2.15887,-6.039115 2.59661,-7.276042 0.91391,-2.582427 3.46966,-9.431457 4.39352,-11.773957 0.34436,-0.87313 1.53253,-3.90922 2.64038,-6.74688 4.931,-12.63019 13.74089,-33.09357 18.33925,-42.59791 12.03394,-24.8729 21.53432,-42.7424 32.56431,-61.25104 16.23276,-27.23904 33.40107,-52.33378 52.40297,-76.59688 3.85302,-4.91983 11.92725,-14.90156 14.44646,-17.85937 0.74366,-0.87313 2.77092,-3.25438 4.50502,-5.29167 25.85165,-30.37149 55.89553,-60.062 87.04136,-86.01759 58.87328,-49.06244 124.73079,-88.2593 195.53908,-116.38028 3.92246,-1.55778 7.72706,-3.05976 8.45467,-3.33775 5.97835,-2.28404 7.92076,-3.00997 11.50937,-4.30134 9.6306,-3.46558 18.21692,-6.38238 26.19375,-8.89809 2.4011,-0.75725 4.84188,-1.53713 5.42396,-1.73307 0.58209,-0.19593 2.1299,-0.67285 3.43959,-1.05982 1.30968,-0.38697 2.6789,-0.81114 3.0427,-0.94259 1.40559,-0.50789 11.288711,-3.30643 20.769795,-5.88124 6.001354,-1.62981 21.529405,-5.54092 25.267708,-6.36428 0.945885,-0.20833 3.922448,-0.86812 6.614583,-1.4662 8.788353,-1.95241 18.477134,-3.95568 23.8125,-4.92352 25.5727223,-4.63892 41.434237,-6.85284 60.589582,-8.45698 2.692136,-0.22545 5.192448,-0.46356 5.55625,-0.52912 0.363802,-0.0656 2.328334,-0.24419 4.365625,-0.39695 2.037292,-0.15275 4.716198,-0.39358 5.953125,-0.53516 1.236927,-0.14159 4.451615,-0.37644 7.14375,-0.5219 2.692136,-0.14546 7.454636,-0.44253 10.583333,-0.66016 9.952342,-0.69225 19.545778,-0.94306 35.718749,-0.93384 25.88821,0.0148 40.87634,0.57336 60.06042,2.23836 2.54661,0.22102 7.48771,0.64898 10.98021,0.95102 10.17946,0.88035 22.97955,2.35028 33.4068,3.83637 7.32277,1.04364 11.27298,1.65764 18.05465,2.80632 2.54662,0.43134 5.64224,0.95293 6.87917,1.15909 1.23693,0.20616 2.78474,0.49093 3.43958,0.63282 0.65485,0.14189 2.8575,0.56963 4.89479,0.95053 2.0373,0.38089 5.49011,1.05409 7.67292,1.49598 2.18281,0.4419 4.80219,0.96581 5.82083,1.16426 1.01865,0.19845 2.32834,0.48191 2.91042,0.62991 0.58208,0.14801 2.48708,0.57568 4.23333,0.95039 5.1884,1.11332 8.71665,1.94147 17.99167,4.223 40.78643,10.03293 81.42987,23.98187 120.1956,41.25146 7.02063,3.12759 8.38677,3.7505 13.61742,6.20908 1.27331,0.59849 3.33231,1.56577 4.57556,2.14951 3.15398,1.48086 18.50639,9.15439 22.56046,11.27629 16.68231,8.73152 39.31015,21.7667 51.83271,29.85917 0.90434,0.58442 2.69028,1.71511 3.96875,2.51265 1.27847,0.79754 6.25356,4.07806 11.05575,7.29005 7.53557,5.04023 10.65136,7.18579 19.18229,13.20909 10.94581,7.72834 29.96987,22.40283 40.94345,31.58234 2.55307,2.13566 5.47545,4.57318 6.49419,5.4167 2.99327,2.47845 13.04265,11.31479 17.78081,15.63453 4.36024,3.9752 7.01363,6.49904 15.61176,14.84948 4.51114,4.3812 9.07971,8.79218 10.15237,9.80219 2.02433,1.9061 15.65347,16.1591 22.24918,23.26763 11.19655,12.06707 27.13564,31.14643 39.34433,47.09583 3.49054,4.56004 12.4433,16.62259 14.72793,19.84375 17.75945,25.0396 32.23134,48.22619 47.06478,75.40625 4.04671,7.415 14.98571,28.95436 18.00577,35.45416 0.81138,1.74625 1.97359,4.24657 2.58268,5.55625 18.72777,40.26866 34.65408,85.512418 45.35736,128.852085 0.97033,3.929062 1.93085,7.858125 2.13449,8.73125 1.16335,4.98805 1.77713,7.7309008 3.41922,15.279687 1.11284,5.1157898 3.16042,15.548152 4.11548,20.968229 0.3077,1.74625 0.72472,4.067969 0.92672,5.159375 0.32788,1.771589 1.30064,7.668373 2.37875,14.419791 2.2714,14.224093 5.11743,37.954472 5.82281,48.551041 0.092,1.382448 0.33877,4.299812 0.54833,6.483032 0.20955,2.183219 0.50046,6.112282 0.64645,8.73125 0.14599,2.61897 0.37284,6.42863 0.5041,8.46593 0.85713,13.30336 1.01912,51.49979 0.29568,69.7177 -0.27535,6.93379 -1.22331,23.11742 -1.46457,25.00313 -0.0745,0.58208 -0.31097,3.20146 -0.52555,5.82083 -0.77382,9.44619 -2.62801,25.42497 -4.35976,37.57083 -1.16672,8.18299 -1.33939,9.35208 -1.71947,11.64167 -0.2174,1.30969 -0.70334,4.28625 -1.07986,6.61458 -0.37652,2.32834 -0.84735,5.12631 -1.0463,6.21771 -0.19896,1.09141 -0.61879,3.41313 -0.93297,5.15938 -1.26423,7.02665 -2.67927,14.21898 -4.21646,21.43125 -0.58929,2.76489 -1.24845,5.86052 -1.46479,6.87916 -0.21634,1.01865 -0.51196,2.32834 -0.65693,2.91042 -0.14497,0.58208 -0.62978,2.66568 -1.07735,4.63021 -2.28187,10.01593 -5.85514,23.83058 -8.86253,34.26354 -2.04187,7.08346 -2.54611,8.79989 -2.7593,9.39271 -0.13084,0.3638 -0.6147,1.91161 -1.07526,3.43958 -2.48221,8.23513 -6.6645,20.68046 -10.59594,31.53062 -3.64243,10.05254 -4.37382,11.97311 -8.83616,23.20286 -15.62691,39.3261 -35.34871,78.45639 -57.45753,114.00223 -4.29948,6.91257 -6.24025,9.93726 -11.07882,17.26637 -4.33418,6.56509 -12.05702,17.84219 -14.31427,20.90209 -0.48307,0.65484 -1.21856,1.66687 -1.63441,2.24895 -29.10121,40.73376 -64.6562,80.36262 -103.39033,115.23674 -12.66439,11.40234 -30.02975,25.86322 -42.44975,35.34973 -5.2295,3.99433 -14.28228,10.75332 -16.27187,12.14889 -0.43657,0.30622 -3.11547,2.21963 -5.95313,4.25201 -7.70174,5.51613 -19.87089,13.78449 -26.9875,18.33671 -1.23692,0.79122 -3.02286,1.9363 -3.96875,2.54462 -1.66719,1.07221 -6.7368,4.24631 -9.87161,6.18066 -0.84549,0.52171 -2.03611,1.26035 -2.64584,1.64143 -4.15354,2.59598 -22.20373,13.03037 -28.09609,16.24168 -11.45041,6.24043 -27.47197,14.45292 -36.11562,18.51249 -2.11006,0.99101 -5.08662,2.3938 -6.61459,3.11733 -5.74331,2.71956 -18.12835,8.15908 -28.04583,12.31775 -2.9978,1.25706 -14.02377,5.67205 -16.27187,6.51554 -15.80837,5.9313 -20.64214,7.65976 -30.95625,11.06934 -8.01995,2.65119 -11.88558,3.89758 -14.55209,4.69202 -0.87312,0.26014 -3.55203,1.06797 -5.95312,1.7952 -4.43553,1.3434 -10.59627,3.13581 -12.03854,3.5025 -0.43657,0.111 -3.88938,1.03579 -7.67292,2.0551 -8.22176,2.21499 -21.99162,5.64254 -28.31042,7.04694 -1.01864,0.2264 -2.86411,0.64149 -4.10104,0.92242 -3.00025,0.68142 -16.81795,3.52775 -20.6375,4.25116 -1.67349,0.31695 -3.87614,0.74284 -4.89479,0.94642 -1.01864,0.20358 -4.35239,0.79751 -7.40833,1.31985 -13.82537,2.36309 -32.02259,4.97916 -40.34896,5.80064 -2.11005,0.20818 -6.21771,0.62778 -9.12813,0.93244 -13.69244,1.43331 -30.14447,2.66651 -42.7302,3.20292 -5.61096,0.23914 -45.572205,0.49993 -52.255211,0.34102 z"
         id="path2" /><path
         style="display:inline;fill:#55bd59;stroke:none"
         d="m 85.636834,-573.90793 c -8.559469,1.12431 -17.481534,0.70254 -26.105556,1.29295 -14.47909,0.99124 -28.942376,2.45816 -43.391667,3.90863 -37.333552,3.74766 -74.746342,12.39821 -110.772222,22.66899 -173.000769,49.32171 -324.277749,165.00319 -417.617299,318.7603 -40.55575,66.80703 -70.80719,140.610539 -87.76355,216.958334 -32.75182,147.468606 -18.78141,303.640206 40.57053,442.736116 25.09613,58.81467 58.08367,114.15151 97.64297,164.39444 45.13657,57.32639 99.41627,107.70514 159.73401,148.75078 70.34554,47.86961 149.22113,83.2367 231.775006,103.87515 86.010512,21.50256 176.333334,27.0266 264.230554,16.09031 192.7115,-23.97743 369.48219,-126.38022 487.22694,-280.71068 46.91462,-61.49186 82.81088,-130.94068 108.14051,-203.90556 24.28681,-69.9611 36.4095,-144.54863 38.21628,-218.36944 5.07066,-207.179263 -84.6516,-411.82362 -238.11984,-550.62626 -78.20513,-70.73186 -171.78383,-122.98758 -272.34444,-154.2327 -51.49583,-16.00023 -105.0128,-25.89059 -158.75,-29.6559 -17.27828,-1.2107 -34.5109,-2.08515 -51.85834,-2.08515 -6.7973,0 -14.075064,-0.73535 -20.813886,0.14969 M -396.96317,474.75072 v -107.95 -27.16389 c 0,-2.41734 -1.00657,-7.79763 0.8177,-9.6094 2.12336,-2.10875 5.46368,-3.56344 8.00175,-5.13948 5.18941,-3.22237 10.33681,-6.5127 15.52222,-9.74222 15.42668,-9.60794 30.7872,-19.31983 46.21389,-28.92777 48.76472,-30.37128 97.21801,-61.24235 146.05,-91.50501 17.92802,-11.11052 35.75479,-22.39313 53.62222,-33.59942 4.23049,-2.65324 8.4612,-5.30674 12.7,-7.94671 1.80032,-1.1213 4.16521,-1.98171 4.22489,-4.38415 0.0987,-3.97279 -5.92526,-6.05355 -8.811,-7.87213 -9.85814,-6.21245 -19.65276,-12.57149 -29.63333,-18.58482 -40.86043,-24.618309 -80.91957,-50.683299 -121.35556,-75.996913 -30.93209,-19.364021 -62.08338,-38.4325381 -92.78056,-58.167251 -8.16229,-5.247397 -16.47315,-10.27517 -24.69444,-15.431358 -2.57788,-1.616783 -7.99467,-3.735345 -9.5152,-6.397542 -1.46387,-2.562979 -0.36258,-8.301991 -0.36258,-11.223605 V -73.113171 -177.53539 c 3.96313,1.2628 7.83079,4.63692 11.28889,6.93799 6.29774,4.1907 12.7154,8.20777 19.05,12.34334 20.76335,13.55542 41.59522,27.01903 62.44167,40.44672 68.19584,43.926602 136.06305,88.365405 204.258332,132.291665 28.496108,18.355038 57.072572,36.619556 85.372223,55.276385 8.3053498,5.475376 16.7416566,10.752229 25.047222,16.227778 3.090078,2.037171 8.03069,4.02146 10.37047,6.890363 1.278733,1.567949 0.565641,5.302174 0.565641,7.221869 v 19.05 59.61944 17.28611 c 0,2.11435 0.613055,5.37478 -0.212864,7.34323 -0.992833,2.36635 -5.478735,4.12713 -7.548247,5.47821 -6.8090159,4.44521 -13.67224903,8.80722 -20.4611112,13.28309 -26.3134238,17.34795 -53.1113148,33.96623 -79.3749998,51.38928 -65.241066,43.28039 -131.382676,85.31994 -197.202776,127.71426 -24.73411,15.93106 -49.34932,32.0467 -74.08334,47.97777 -13.10348,8.43988 -25.89458,17.92751 -39.51111,25.50861 m 955.67501,-621.49376 c 24.97401,-2.98811 47.34568,16.64472 49.6818,41.17431 0.85766,9.005914 0.0599,18.46718 0.0599,27.51667 v 55.033334 166.158336 c 0,22.12113 2.59623,44.5108 -15.875,60.57571 -3.24416,2.82154 -7.00913,5.11752 -10.93611,6.85359 -4.82063,2.13105 -9.93686,3.27353 -15.16944,3.77186 -24.62563,2.34551 -45.9947,-17.66886 -48.2707,-41.56783 -0.85766,-9.00582 -0.0599,-18.46726 -0.0599,-27.51667 V 90.575719 -74.524282 c 0,-22.048008 -3.09214,-45.993748 15.875,-61.764188 3.07122,-2.55359 6.5493,-4.9351 10.23056,-6.52363 4.66052,-2.01108 9.42139,-3.32762 14.46389,-3.93094 m -415.92501,69.497219 c 6.19299,-0.733203 12.813,-0.100683 19.05,-0.100683 h 37.74723 113.94722 74.08333 c 12.79827,0 26.93066,-1.66734 39.51111,0.86403 5.19237,1.044811 10.33133,3.109887 14.81667,5.919535 25.13964,15.747532 27.64767,50.831523 7.05556,71.17894593 -4.03404,3.98606167 -9.1165,7.33142157 -14.46389,9.28108727 -10.03135,3.6574858 -20.18887,3.0675128 -30.69167,3.0675128 h -41.62778 -149.225 -51.15278 c -10.37421,0 -21.18647,1.007002 -31.04444,-2.894052 C 124.9328,7.7517471 119.39644,4.3805489 114.92256,-0.09333823 97.710171,-17.305724 97.530165,-46.542527 114.57848,-63.935781 c 7.54028,-7.692812 17.6202,-12.056542 28.20835,-13.31004 m 41.98056,174.625 c 24.91631,-2.949777 46.68191,17.435631 48.97625,41.527091 0.85766,9.00591 0.0599,18.46727 0.0599,27.51667 v 54.68056 166.15833 c 0,20.43105 3.09499,44.07276 -14.11249,59.11663 -3.73224,3.26303 -7.5501,5.81291 -11.99306,7.9971 -4.70635,2.31382 -9.95711,3.58945 -15.16945,4.08744 -24.9884,2.38797 -46.64409,-17.07975 -48.97625,-41.56784 -0.85766,-9.00591 -0.0599,-18.46726 -0.0599,-27.51666 V 335.05072 169.59794 c 0,-21.47138 -3.08698,-44.9529 14.81667,-60.73247 3.46378,-3.05287 7.15227,-5.40733 11.28889,-7.43968 4.76034,-2.338705 9.9397,-3.427441 15.16944,-4.046611 m 139.7,186.619531 c 6.1929,-0.7332 12.81309,-0.10077 19.05,-0.10077 h 37.39445 114.3 74.08333 c 12.79818,0 26.93066,-1.66725 39.51111,0.86403 5.30924,1.06815 10.64724,3.21677 15.16944,6.19256 24.79651,16.31735 27.29515,50.82412 6.35,71.25491 -4.24427,4.14006 -9.59484,7.30016 -15.16944,9.286 -9.507,3.3867 -19.35274,2.71361 -29.28056,2.71361 H 543.89517 395.02295 343.87017 c -10.35363,0 -21.1832,1.04878 -31.04445,-2.75556 -5.8719,-2.26532 -11.33126,-5.56288 -15.87362,-9.9583 -17.79435,-17.21859 -17.78556,-47.10307 -0.34899,-64.5393 7.52685,-7.52668 17.40936,-11.71953 27.86428,-12.95718 z"
         id="path1" /></g></g></svg>
