<?xml version="1.0" encoding="UTF-8"?>
<svg width="1445mm" height="1445.3mm" version="1.1" viewBox="0 0 1445 1445.3" xml:space="preserve" xmlns="http://www.w3.org/2000/svg"><g transform="translate(617.29 574.34)"><path d="m84.005 870.58c-6.5968-0.15687-18.013-0.64643-20.902-0.89634-1.6007-0.13847-4.9345-0.37208-7.4083-0.51914-2.4739-0.14705-6.1053-0.44107-8.0698-0.65337-1.9645-0.21229-5.9531-0.62806-8.8635-0.92391-12.199-1.2401-15.953-1.6178-17.33-1.7437-12.222-1.1175-25.205-2.9497-44.053-6.2169-5.9828-1.0371-19.35-3.6727-24.209-4.7735-10.36-2.3468-16.528-3.7856-22.093-5.1534-2.5954-0.63801-12.585-3.2537-15.214-3.9836-1.819-0.50507-4.2003-1.1627-5.2917-1.4614-1.0914-0.29873-2.6988-0.75769-3.5719-1.0199s-2.7186-0.80299-4.101-1.2017c-16.31-4.7038-40.242-12.689-53.578-17.876-14.789-5.7527-23.081-9.0887-28.575-11.496-7.6436-3.3496-17.335-7.6696-19.711-8.7869-1.6735-0.7867-4.4715-2.1022-6.2177-2.9234-1.7462-0.8212-7.5208-3.661-12.832-6.3106-23.155-11.551-42.68-22.607-66.278-37.53-3.7523-2.3729-17.736-11.64-20.841-13.811-13.885-9.7094-22.034-15.675-32.605-23.867-53.859-41.74-102.03-91.449-141.82-146.35-3.4821-4.8042-6.6731-9.3113-10.49-14.817-4.2992-6.201-10.469-15.554-15.357-23.281-2.9482-4.6604-4.3853-6.9947-9.5316-15.482-2.702-4.4562-11.04-19.015-13.637-23.81-1.0244-1.8918-2.4098-4.4516-3.0786-5.6885-9.0506-16.737-21.751-43.292-28.599-59.796-0.69441-1.6735-1.5921-3.8166-1.9949-4.7625-1.4914-3.502-7.418-18.57-9.4701-24.077-8.1143-21.775-15.481-44.805-20.948-65.484-0.26928-1.0186-0.80382-3.0427-1.1879-4.4979-4.0247-15.25-8.9393-37.181-11.354-50.668-0.22149-1.2369-0.64444-3.5586-0.93989-5.1594-2.199-11.914-4.8873-29.984-6.3767-42.862-1.275-11.025-2.8542-28.904-3.2951-37.306-0.084-1.6007-0.32248-5.2321-0.52997-8.0698-1.1378-15.561-1.2105-58.651-0.12949-76.729 0.35333-5.9087 1.019-15.292 1.3138-18.521 0.13954-1.528 0.32363-3.7306 0.4091-4.8948 0.14786-2.014 0.58184-6.4024 1.7138-17.33 0.27888-2.6921 0.58341-5.7282 0.67675-6.7469 0.0934-1.0186 0.46512-3.9357 0.82617-6.4823 0.36105-2.5466 0.82423-5.8208 1.0293-7.276 1.56-11.071 3.2423-22.034 4.3441-28.31 0.30657-1.7462 0.72146-4.1275 0.92197-5.2917 0.39139-2.2723 0.72708-4.0172 2.1632-11.245 1.1666-5.871 2.2948-11.063 4.4845-20.637 0.67842-2.9664 3.7751-15.346 4.8315-19.315 2.2679-8.5201 5.1682-18.71 7.1921-25.268 3.053-9.8927 7.2213-22.498 10.061-30.427 0.99039-2.7649 2.1589-6.0391 2.5966-7.276 0.91391-2.5824 3.4697-9.4315 4.3935-11.774 0.34436-0.87313 1.5325-3.9092 2.6404-6.7469 4.931-12.63 13.741-33.094 18.339-42.598 12.034-24.873 21.534-42.742 32.564-61.251 16.233-27.239 33.401-52.334 52.403-76.597 3.853-4.9198 11.927-14.902 14.446-17.859 0.74366-0.87313 2.7709-3.2544 4.505-5.2917 25.852-30.371 55.896-60.062 87.041-86.018 58.873-49.062 124.73-88.259 195.54-116.38 3.9225-1.5578 7.7271-3.0598 8.4547-3.3378 5.9784-2.284 7.9208-3.01 11.509-4.3013 9.6306-3.4656 18.217-6.3824 26.194-8.8981 2.4011-0.75725 4.8419-1.5371 5.424-1.7331 0.58209-0.19593 2.1299-0.67285 3.4396-1.0598 1.3097-0.38697 2.6789-0.81114 3.0427-0.94259 1.4056-0.50789 11.289-3.3064 20.77-5.8812 6.0014-1.6298 21.529-5.5409 25.268-6.3643 0.94588-0.20833 3.9224-0.86812 6.6146-1.4662 8.7884-1.9524 18.477-3.9557 23.812-4.9235 25.573-4.6389 41.434-6.8528 60.59-8.457 2.6921-0.22545 5.1924-0.46356 5.5562-0.52912 0.3638-0.0656 2.3283-0.24419 4.3656-0.39695 2.0373-0.15275 4.7162-0.39358 5.9531-0.53516 1.2369-0.14159 4.4516-0.37644 7.1438-0.5219 2.6921-0.14546 7.4546-0.44253 10.583-0.66016 9.9523-0.69225 19.546-0.94306 35.719-0.93384 25.888 0.0148 40.876 0.57336 60.06 2.2384 2.5466 0.22102 7.4877 0.64898 10.98 0.95102 10.179 0.88035 22.98 2.3503 33.407 3.8364 7.3228 1.0436 11.273 1.6576 18.055 2.8063 2.5466 0.43134 5.6422 0.95293 6.8792 1.1591s2.7847 0.49093 3.4396 0.63282c0.65485 0.14189 2.8575 0.56963 4.8948 0.95053 2.0373 0.38089 5.4901 1.0541 7.6729 1.496 2.1828 0.4419 4.8022 0.96581 5.8208 1.1643 1.0186 0.19845 2.3283 0.48191 2.9104 0.62991 0.58208 0.14801 2.4871 0.57568 4.2333 0.95039 5.1884 1.1133 8.7166 1.9415 17.992 4.223 40.786 10.033 81.43 23.982 120.2 41.251 7.0206 3.1276 8.3868 3.7505 13.617 6.2091 1.2733 0.59849 3.3323 1.5658 4.5756 2.1495 3.154 1.4809 18.506 9.1544 22.56 11.276 16.682 8.7315 39.31 21.767 51.833 29.859 0.90434 0.58442 2.6903 1.7151 3.9688 2.5126s6.2536 4.0781 11.056 7.29c7.5356 5.0402 10.651 7.1858 19.182 13.209 10.946 7.7283 29.97 22.403 40.943 31.582 2.5531 2.1357 5.4754 4.5732 6.4942 5.4167 2.9933 2.4784 13.043 11.315 17.781 15.635 4.3602 3.9752 7.0136 6.499 15.612 14.849 4.5111 4.3812 9.0797 8.7922 10.152 9.8022 2.0243 1.9061 15.653 16.159 22.249 23.268 11.197 12.067 27.136 31.146 39.344 47.096 3.4905 4.56 12.443 16.623 14.728 19.844 17.759 25.04 32.231 48.226 47.065 75.406 4.0467 7.415 14.986 28.954 18.006 35.454 0.81138 1.7462 1.9736 4.2466 2.5827 5.5562 18.728 40.269 34.654 85.512 45.357 128.85 0.97033 3.9291 1.9308 7.8581 2.1345 8.7312 1.1634 4.988 1.7771 7.7309 3.4192 15.28 1.1128 5.1158 3.1604 15.548 4.1155 20.968 0.3077 1.7462 0.72472 4.068 0.92672 5.1594 0.32788 1.7716 1.3006 7.6684 2.3788 14.42 2.2714 14.224 5.1174 37.954 5.8228 48.551 0.092 1.3824 0.33877 4.2998 0.54833 6.483 0.20955 2.1832 0.50046 6.1123 0.64645 8.7312 0.14599 2.619 0.37284 6.4286 0.5041 8.4659 0.85713 13.303 1.0191 51.5 0.29568 69.718-0.27535 6.9338-1.2233 23.117-1.4646 25.003-0.0745 0.58208-0.31097 3.2015-0.52555 5.8208-0.77382 9.4462-2.628 25.425-4.3598 37.571-1.1667 8.183-1.3394 9.3521-1.7195 11.642-0.2174 1.3097-0.70334 4.2862-1.0799 6.6146-0.37652 2.3283-0.84735 5.1263-1.0463 6.2177-0.19896 1.0914-0.61879 3.4131-0.93297 5.1594-1.2642 7.0266-2.6793 14.219-4.2165 21.431-0.58929 2.7649-1.2484 5.8605-1.4648 6.8792-0.21634 1.0186-0.51196 2.3283-0.65693 2.9104s-0.62978 2.6657-1.0774 4.6302c-2.2819 10.016-5.8551 23.831-8.8625 34.264-2.0419 7.0835-2.5461 8.7999-2.7593 9.3927-0.13084 0.3638-0.6147 1.9116-1.0753 3.4396-2.4822 8.2351-6.6645 20.68-10.596 31.531-3.6424 10.053-4.3738 11.973-8.8362 23.203-15.627 39.326-35.349 78.456-57.458 114-4.2995 6.9126-6.2402 9.9373-11.079 17.266-4.3342 6.5651-12.057 17.842-14.314 20.902-0.48307 0.65484-1.2186 1.6669-1.6344 2.249-29.101 40.734-64.656 80.363-103.39 115.24-12.664 11.402-30.03 25.863-42.45 35.35-5.2295 3.9943-14.282 10.753-16.272 12.149-0.43657 0.30622-3.1155 2.2196-5.9531 4.252-7.7017 5.5161-19.871 13.784-26.988 18.337-1.2369 0.79122-3.0229 1.9363-3.9688 2.5446-1.6672 1.0722-6.7368 4.2463-9.8716 6.1807-0.84549 0.52171-2.0361 1.2604-2.6458 1.6414-4.1535 2.596-22.204 13.03-28.096 16.242-11.45 6.2404-27.472 14.453-36.116 18.512-2.1101 0.99101-5.0866 2.3938-6.6146 3.1173-5.7433 2.7196-18.128 8.1591-28.046 12.318-2.9978 1.2571-14.024 5.672-16.272 6.5155-15.808 5.9313-20.642 7.6598-30.956 11.069-8.02 2.6512-11.886 3.8976-14.552 4.692-0.87312 0.26014-3.552 1.068-5.9531 1.7952-4.4355 1.3434-10.596 3.1358-12.039 3.5025-0.43657 0.111-3.8894 1.0358-7.6729 2.0551-8.2218 2.215-21.992 5.6425-28.31 7.0469-1.0186 0.2264-2.8641 0.64149-4.101 0.92242-3.0002 0.68142-16.818 3.5278-20.638 4.2512-1.6735 0.31695-3.8761 0.74284-4.8948 0.94642-1.0186 0.20358-4.3524 0.79751-7.4083 1.3198-13.825 2.3631-32.023 4.9792-40.349 5.8006-2.11 0.20818-6.2177 0.62778-9.1281 0.93244-13.692 1.4333-30.144 2.6665-42.73 3.2029-5.611 0.23914-45.572 0.49993-52.255 0.34102z" fill="#fff"/><path d="m85.637-573.91c-8.5595 1.1243-17.482 0.70254-26.106 1.293-14.479 0.99124-28.942 2.4582-43.392 3.9086-37.334 3.7477-74.746 12.398-110.77 22.669-173 49.322-324.28 165-417.62 318.76-40.556 66.807-70.807 140.61-87.764 216.96-32.752 147.47-18.781 303.64 40.571 442.74 25.096 58.815 58.084 114.15 97.643 164.39 45.137 57.326 99.416 107.71 159.73 148.75 70.346 47.87 149.22 83.237 231.78 103.88 86.011 21.503 176.33 27.027 264.23 16.09 192.71-23.977 369.48-126.38 487.23-280.71 46.915-61.492 82.811-130.94 108.14-203.91 24.287-69.961 36.41-144.55 38.216-218.37 5.0707-207.18-84.652-411.82-238.12-550.63-78.205-70.732-171.78-122.99-272.34-154.23-51.496-16-105.01-25.891-158.75-29.656-17.278-1.2107-34.511-2.0852-51.858-2.0852-6.7973 0-14.075-0.73535-20.814 0.14969m-482.6 1048.7v-135.11c0-2.4173-1.0066-7.7976 0.8177-9.6094 2.1234-2.1088 5.4637-3.5634 8.0018-5.1395 5.1894-3.2224 10.337-6.5127 15.522-9.7422 15.427-9.6079 30.787-19.32 46.214-28.928 48.765-30.371 97.218-61.242 146.05-91.505 17.928-11.111 35.755-22.393 53.622-33.599 4.2305-2.6532 8.4612-5.3067 12.7-7.9467 1.8003-1.1213 4.1652-1.9817 4.2249-4.3842 0.0987-3.9728-5.9253-6.0536-8.811-7.8721-9.8581-6.2124-19.653-12.571-29.633-18.585-40.86-24.618-80.92-50.683-121.36-75.997-30.932-19.364-62.083-38.433-92.781-58.167-8.1623-5.2474-16.473-10.275-24.694-15.431-2.5779-1.6168-7.9947-3.7353-9.5152-6.3975-1.4639-2.563-0.36258-8.302-0.36258-11.224v-132.64c3.9631 1.2628 7.8308 4.6369 11.289 6.938 6.2977 4.1907 12.715 8.2078 19.05 12.343 20.763 13.555 41.595 27.019 62.442 40.447 68.196 43.927 136.06 88.365 204.26 132.29 28.496 18.355 57.073 36.62 85.372 55.276 8.3053 5.4754 16.742 10.752 25.047 16.228 3.0901 2.0372 8.0307 4.0215 10.37 6.8904 1.2787 1.5679 0.56564 5.3022 0.56564 7.2219v95.956c0 2.1144 0.61306 5.3748-0.21286 7.3432-0.99283 2.3664-5.4787 4.1271-7.5482 5.4782-6.809 4.4452-13.672 8.8072-20.461 13.283-26.313 17.348-53.111 33.966-79.375 51.389-65.241 43.28-131.38 85.32-197.2 127.71-24.734 15.931-49.349 32.047-74.083 47.978-13.103 8.4399-25.895 17.928-39.511 25.509m955.68-621.49c24.974-2.9881 47.346 16.645 49.682 41.174 0.85766 9.0059 0.0599 18.467 0.0599 27.517v221.19c0 22.121 2.5962 44.511-15.875 60.576-3.2442 2.8215-7.0091 5.1175-10.936 6.8536-4.8206 2.131-9.9369 3.2735-15.169 3.7719-24.626 2.3455-45.995-17.669-48.271-41.568-0.85766-9.0058-0.0599-18.467-0.0599-27.517v-219.78c0-22.048-3.0921-45.994 15.875-61.764 3.0712-2.5536 6.5493-4.9351 10.231-6.5236 4.6605-2.0111 9.4214-3.3276 14.464-3.9309m-415.93 69.497c6.193-0.7332 12.813-0.10068 19.05-0.10068h225.78c12.798 0 26.931-1.6673 39.511 0.86403 5.1924 1.0448 10.331 3.1099 14.817 5.9195 25.14 15.748 27.648 50.832 7.0556 71.179-4.034 3.9861-9.1165 7.3314-14.464 9.2811-10.031 3.6575-20.189 3.0675-30.692 3.0675h-242.01c-10.374 0-21.186 1.007-31.044-2.8941-5.8596-2.3188-11.396-5.69-15.87-10.164-17.212-17.212-17.392-46.449-0.34408-63.842 7.5403-7.6928 17.62-12.057 28.208-13.31m41.981 174.62c24.916-2.9498 46.682 17.436 48.976 41.527 0.85766 9.0059 0.0599 18.467 0.0599 27.517v220.84c0 20.431 3.095 44.073-14.112 59.117-3.7322 3.263-7.5501 5.8129-11.993 7.9971-4.7064 2.3138-9.9571 3.5894-15.169 4.0874-24.988 2.388-46.644-17.08-48.976-41.568-0.85766-9.0059-0.0599-18.467-0.0599-27.517v-219.78c0-21.471-3.087-44.953 14.817-60.732 3.4638-3.0529 7.1523-5.4073 11.289-7.4397 4.7603-2.3387 9.9397-3.4274 15.169-4.0466m139.7 186.62c6.1929-0.7332 12.813-0.10077 19.05-0.10077h225.78c12.798 0 26.931-1.6672 39.511 0.86403 5.3092 1.0682 10.647 3.2168 15.169 6.1926 24.797 16.317 27.295 50.824 6.35 71.255-4.2443 4.1401-9.5948 7.3002-15.169 9.286-9.507 3.3867-19.353 2.7136-29.281 2.7136h-242.01c-10.354 0-21.183 1.0488-31.044-2.7556-5.8719-2.2653-11.331-5.5629-15.874-9.9583-17.794-17.219-17.786-47.103-0.34899-64.539 7.5268-7.5267 17.409-11.72 27.864-12.957z" fill="#55bd59"/></g></svg>
